<mxfile host="app.diagrams.net" agent="Mozilla/5.0 (Windows NT 10.0; Win64; x64) AppleWebKit/537.36 (KHTML, like Gecko) Chrome/138.0.0.0 Safari/537.36" version="27.2.0">
  <diagram name="Page-1" id="xK95l9zC4GOYJRdqOB2q">
    <mxGraphModel dx="926" dy="359" grid="1" gridSize="10" guides="1" tooltips="1" connect="1" arrows="1" fold="1" page="1" pageScale="1" pageWidth="850" pageHeight="1100" math="0" shadow="0">
      <root>
        <mxCell id="0" />
        <mxCell id="1" parent="0" />
        <mxCell id="CZyFofMT-6BepxbUikvj-1" value="" style="rounded=0;whiteSpace=wrap;html=1;movable=0;resizable=0;rotatable=0;deletable=0;editable=0;locked=1;connectable=0;" parent="1" vertex="1">
          <mxGeometry x="80" y="40" width="690" height="470" as="geometry" />
        </mxCell>
        <mxCell id="CZyFofMT-6BepxbUikvj-2" value="" style="endArrow=none;html=1;rounded=0;movable=0;resizable=0;rotatable=0;deletable=0;editable=0;locked=1;connectable=0;fillColor=none;strokeColor=default;" parent="1" edge="1">
          <mxGeometry width="50" height="50" relative="1" as="geometry">
            <mxPoint x="280" y="510" as="sourcePoint" />
            <mxPoint x="280" y="40" as="targetPoint" />
          </mxGeometry>
        </mxCell>
        <mxCell id="CZyFofMT-6BepxbUikvj-4" value="" style="endArrow=none;html=1;rounded=0;movable=0;resizable=0;rotatable=0;deletable=0;editable=0;locked=1;connectable=0;fillColor=none;strokeColor=default;" parent="1" edge="1">
          <mxGeometry width="50" height="50" relative="1" as="geometry">
            <mxPoint x="80" y="90" as="sourcePoint" />
            <mxPoint x="280" y="90" as="targetPoint" />
          </mxGeometry>
        </mxCell>
        <mxCell id="CZyFofMT-6BepxbUikvj-5" value="" style="ellipse;whiteSpace=wrap;html=1;aspect=fixed;fillColor=#AFAFAF;movable=0;resizable=0;rotatable=0;deletable=0;editable=0;locked=1;connectable=0;" parent="1" vertex="1">
          <mxGeometry x="90" y="50" width="30" height="30" as="geometry" />
        </mxCell>
        <mxCell id="CZyFofMT-6BepxbUikvj-6" value="&lt;b&gt;SPK Guru Terbaik&lt;/b&gt;" style="text;html=1;align=center;verticalAlign=middle;whiteSpace=wrap;rounded=0;movable=0;resizable=0;rotatable=0;deletable=0;editable=0;locked=1;connectable=0;" parent="1" vertex="1">
          <mxGeometry x="130" y="50" width="110" height="30" as="geometry" />
        </mxCell>
        <mxCell id="CZyFofMT-6BepxbUikvj-7" value="" style="endArrow=none;html=1;rounded=0;movable=0;resizable=0;rotatable=0;deletable=0;editable=0;locked=1;connectable=0;fillColor=none;strokeColor=default;" parent="1" edge="1">
          <mxGeometry width="50" height="50" relative="1" as="geometry">
            <mxPoint x="80" y="140" as="sourcePoint" />
            <mxPoint x="280" y="140" as="targetPoint" />
          </mxGeometry>
        </mxCell>
        <mxCell id="CZyFofMT-6BepxbUikvj-8" value="" style="ellipse;whiteSpace=wrap;html=1;aspect=fixed;fillColor=#AFAFAF;movable=0;resizable=0;rotatable=0;deletable=0;editable=0;locked=1;connectable=0;" parent="1" vertex="1">
          <mxGeometry x="90" y="100" width="30" height="30" as="geometry" />
        </mxCell>
        <mxCell id="CZyFofMT-6BepxbUikvj-9" value="&lt;b&gt;Admin&lt;/b&gt;" style="text;html=1;align=center;verticalAlign=middle;whiteSpace=wrap;rounded=0;movable=0;resizable=0;rotatable=0;deletable=0;editable=0;locked=1;connectable=0;" parent="1" vertex="1">
          <mxGeometry x="130" y="100" width="50" height="30" as="geometry" />
        </mxCell>
        <mxCell id="CZyFofMT-6BepxbUikvj-10" value="" style="whiteSpace=wrap;html=1;aspect=fixed;fillColor=#AFAFAF;movable=0;resizable=0;rotatable=0;deletable=0;editable=0;locked=1;connectable=0;" parent="1" vertex="1">
          <mxGeometry x="90" y="160" width="30" height="30" as="geometry" />
        </mxCell>
        <mxCell id="CZyFofMT-6BepxbUikvj-11" value="" style="whiteSpace=wrap;html=1;aspect=fixed;fillColor=#AFAFAF;movable=0;resizable=0;rotatable=0;deletable=0;editable=0;locked=1;connectable=0;" parent="1" vertex="1">
          <mxGeometry x="90" y="200" width="30" height="30" as="geometry" />
        </mxCell>
        <mxCell id="CZyFofMT-6BepxbUikvj-12" value="" style="whiteSpace=wrap;html=1;aspect=fixed;fillColor=#AFAFAF;movable=0;resizable=0;rotatable=0;deletable=0;editable=0;locked=1;connectable=0;" parent="1" vertex="1">
          <mxGeometry x="90" y="240" width="30" height="30" as="geometry" />
        </mxCell>
        <mxCell id="CZyFofMT-6BepxbUikvj-13" value="" style="whiteSpace=wrap;html=1;aspect=fixed;fillColor=#AFAFAF;movable=0;resizable=0;rotatable=0;deletable=0;editable=0;locked=1;connectable=0;" parent="1" vertex="1">
          <mxGeometry x="90" y="280" width="30" height="30" as="geometry" />
        </mxCell>
        <mxCell id="CZyFofMT-6BepxbUikvj-14" value="" style="whiteSpace=wrap;html=1;aspect=fixed;fillColor=#AFAFAF;movable=0;resizable=0;rotatable=0;deletable=0;editable=0;locked=1;connectable=0;" parent="1" vertex="1">
          <mxGeometry x="90" y="320" width="30" height="30" as="geometry" />
        </mxCell>
        <mxCell id="CZyFofMT-6BepxbUikvj-15" value="" style="whiteSpace=wrap;html=1;aspect=fixed;fillColor=#AFAFAF;movable=0;resizable=0;rotatable=0;deletable=0;editable=0;locked=1;connectable=0;" parent="1" vertex="1">
          <mxGeometry x="90" y="360" width="30" height="30" as="geometry" />
        </mxCell>
        <mxCell id="CZyFofMT-6BepxbUikvj-16" value="" style="whiteSpace=wrap;html=1;aspect=fixed;fillColor=#AFAFAF;movable=0;resizable=0;rotatable=0;deletable=0;editable=0;locked=1;connectable=0;" parent="1" vertex="1">
          <mxGeometry x="90" y="400" width="30" height="30" as="geometry" />
        </mxCell>
        <mxCell id="CZyFofMT-6BepxbUikvj-17" value="&lt;b&gt;Dashboard&lt;/b&gt;" style="text;html=1;align=left;verticalAlign=middle;whiteSpace=wrap;rounded=0;movable=0;resizable=0;rotatable=0;deletable=0;editable=0;locked=1;connectable=0;" parent="1" vertex="1">
          <mxGeometry x="130" y="160" width="110" height="30" as="geometry" />
        </mxCell>
        <mxCell id="CZyFofMT-6BepxbUikvj-19" value="&lt;b&gt;Data Alternatif&lt;/b&gt;" style="text;html=1;align=left;verticalAlign=middle;whiteSpace=wrap;rounded=0;movable=0;resizable=0;rotatable=0;deletable=0;editable=0;locked=1;connectable=0;" parent="1" vertex="1">
          <mxGeometry x="130" y="200" width="110" height="30" as="geometry" />
        </mxCell>
        <mxCell id="CZyFofMT-6BepxbUikvj-20" value="&lt;b&gt;Data Kriteria&lt;/b&gt;" style="text;html=1;align=left;verticalAlign=middle;whiteSpace=wrap;rounded=0;movable=0;resizable=0;rotatable=0;deletable=0;editable=0;locked=1;connectable=0;" parent="1" vertex="1">
          <mxGeometry x="130" y="240" width="110" height="30" as="geometry" />
        </mxCell>
        <mxCell id="CZyFofMT-6BepxbUikvj-21" value="&lt;b&gt;Penilaian&lt;/b&gt;" style="text;html=1;align=left;verticalAlign=middle;whiteSpace=wrap;rounded=0;movable=0;resizable=0;rotatable=0;deletable=0;editable=0;locked=1;connectable=0;" parent="1" vertex="1">
          <mxGeometry x="130" y="280" width="110" height="30" as="geometry" />
        </mxCell>
        <mxCell id="CZyFofMT-6BepxbUikvj-22" value="&lt;b&gt;Hasil ARAS&lt;/b&gt;" style="text;html=1;align=left;verticalAlign=middle;whiteSpace=wrap;rounded=0;movable=0;resizable=0;rotatable=0;deletable=0;editable=0;locked=1;connectable=0;" parent="1" vertex="1">
          <mxGeometry x="130" y="320" width="110" height="30" as="geometry" />
        </mxCell>
        <mxCell id="CZyFofMT-6BepxbUikvj-23" value="&lt;b&gt;Kelola Admin&lt;/b&gt;" style="text;html=1;align=left;verticalAlign=middle;whiteSpace=wrap;rounded=0;movable=0;resizable=0;rotatable=0;deletable=0;editable=0;locked=1;connectable=0;" parent="1" vertex="1">
          <mxGeometry x="130" y="360" width="110" height="30" as="geometry" />
        </mxCell>
        <mxCell id="CZyFofMT-6BepxbUikvj-24" value="&lt;b&gt;Logout&lt;/b&gt;" style="text;html=1;align=left;verticalAlign=middle;whiteSpace=wrap;rounded=0;movable=0;resizable=0;rotatable=0;deletable=0;editable=0;locked=1;connectable=0;" parent="1" vertex="1">
          <mxGeometry x="130" y="400" width="110" height="30" as="geometry" />
        </mxCell>
        <mxCell id="CZyFofMT-6BepxbUikvj-25" value="" style="endArrow=none;html=1;rounded=0;" parent="1" edge="1">
          <mxGeometry width="50" height="50" relative="1" as="geometry">
            <mxPoint x="280" y="90" as="sourcePoint" />
            <mxPoint x="770" y="90" as="targetPoint" />
          </mxGeometry>
        </mxCell>
        <mxCell id="CZyFofMT-6BepxbUikvj-26" value="" style="ellipse;whiteSpace=wrap;html=1;aspect=fixed;fillColor=#AFAFAF;" parent="1" vertex="1">
          <mxGeometry x="730" y="50" width="30" height="30" as="geometry" />
        </mxCell>
        <mxCell id="CZyFofMT-6BepxbUikvj-31" value="" style="group" parent="1" vertex="1" connectable="0">
          <mxGeometry x="290" y="55" width="30" height="20" as="geometry" />
        </mxCell>
        <mxCell id="CZyFofMT-6BepxbUikvj-27" value="" style="endArrow=none;html=1;rounded=0;" parent="CZyFofMT-6BepxbUikvj-31" edge="1">
          <mxGeometry width="50" height="50" relative="1" as="geometry">
            <mxPoint as="sourcePoint" />
            <mxPoint x="30" as="targetPoint" />
          </mxGeometry>
        </mxCell>
        <mxCell id="CZyFofMT-6BepxbUikvj-29" value="" style="endArrow=none;html=1;rounded=0;" parent="CZyFofMT-6BepxbUikvj-31" edge="1">
          <mxGeometry width="50" height="50" relative="1" as="geometry">
            <mxPoint y="10" as="sourcePoint" />
            <mxPoint x="30" y="10" as="targetPoint" />
          </mxGeometry>
        </mxCell>
        <mxCell id="CZyFofMT-6BepxbUikvj-30" value="" style="endArrow=none;html=1;rounded=0;" parent="CZyFofMT-6BepxbUikvj-31" edge="1">
          <mxGeometry width="50" height="50" relative="1" as="geometry">
            <mxPoint y="20" as="sourcePoint" />
            <mxPoint x="30" y="20" as="targetPoint" />
          </mxGeometry>
        </mxCell>
        <mxCell id="CZyFofMT-6BepxbUikvj-46" value="" style="endArrow=none;html=1;rounded=0;" parent="1" edge="1">
          <mxGeometry width="50" height="50" relative="1" as="geometry">
            <mxPoint x="280" y="470" as="sourcePoint" />
            <mxPoint x="770" y="470" as="targetPoint" />
          </mxGeometry>
        </mxCell>
        <mxCell id="KwYtqTC4AMZ2sCdALiQx-1" value="&lt;font style=&quot;font-size: 14px;&quot;&gt;Penilaian Alternatif&lt;/font&gt;" style="text;html=1;align=center;verticalAlign=middle;whiteSpace=wrap;rounded=0;" vertex="1" parent="1">
          <mxGeometry x="290" y="100" width="120" height="30" as="geometry" />
        </mxCell>
        <mxCell id="KwYtqTC4AMZ2sCdALiQx-17" value="" style="shape=table;startSize=0;container=1;collapsible=0;childLayout=tableLayout;" vertex="1" parent="1">
          <mxGeometry x="290" y="190" width="470" height="120" as="geometry" />
        </mxCell>
        <mxCell id="KwYtqTC4AMZ2sCdALiQx-18" value="" style="shape=tableRow;horizontal=0;startSize=0;swimlaneHead=0;swimlaneBody=0;strokeColor=inherit;top=0;left=0;bottom=0;right=0;collapsible=0;dropTarget=0;fillColor=none;points=[[0,0.5],[1,0.5]];portConstraint=eastwest;" vertex="1" parent="KwYtqTC4AMZ2sCdALiQx-17">
          <mxGeometry width="470" height="40" as="geometry" />
        </mxCell>
        <mxCell id="KwYtqTC4AMZ2sCdALiQx-19" value="&lt;b&gt;Alternatif/Kriteria&lt;/b&gt;" style="shape=partialRectangle;html=1;whiteSpace=wrap;connectable=0;strokeColor=inherit;overflow=hidden;fillColor=#AFAFAF;top=0;left=0;bottom=0;right=0;pointerEvents=1;" vertex="1" parent="KwYtqTC4AMZ2sCdALiQx-18">
          <mxGeometry width="170" height="40" as="geometry">
            <mxRectangle width="170" height="40" as="alternateBounds" />
          </mxGeometry>
        </mxCell>
        <mxCell id="KwYtqTC4AMZ2sCdALiQx-20" value="&lt;b&gt;C1&lt;/b&gt;" style="shape=partialRectangle;html=1;whiteSpace=wrap;connectable=0;strokeColor=inherit;overflow=hidden;fillColor=#AFAFAF;top=0;left=0;bottom=0;right=0;pointerEvents=1;" vertex="1" parent="KwYtqTC4AMZ2sCdALiQx-18">
          <mxGeometry x="170" width="60" height="40" as="geometry">
            <mxRectangle width="60" height="40" as="alternateBounds" />
          </mxGeometry>
        </mxCell>
        <mxCell id="KwYtqTC4AMZ2sCdALiQx-21" value="&lt;b&gt;C2&lt;/b&gt;" style="shape=partialRectangle;html=1;whiteSpace=wrap;connectable=0;strokeColor=inherit;overflow=hidden;fillColor=#AFAFAF;top=0;left=0;bottom=0;right=0;pointerEvents=1;" vertex="1" parent="KwYtqTC4AMZ2sCdALiQx-18">
          <mxGeometry x="230" width="60" height="40" as="geometry">
            <mxRectangle width="60" height="40" as="alternateBounds" />
          </mxGeometry>
        </mxCell>
        <mxCell id="KwYtqTC4AMZ2sCdALiQx-22" value="&lt;b&gt;C3&lt;/b&gt;" style="shape=partialRectangle;html=1;whiteSpace=wrap;connectable=0;strokeColor=inherit;overflow=hidden;fillColor=#AFAFAF;top=0;left=0;bottom=0;right=0;pointerEvents=1;" vertex="1" parent="KwYtqTC4AMZ2sCdALiQx-18">
          <mxGeometry x="290" width="60" height="40" as="geometry">
            <mxRectangle width="60" height="40" as="alternateBounds" />
          </mxGeometry>
        </mxCell>
        <mxCell id="KwYtqTC4AMZ2sCdALiQx-23" value="&lt;b&gt;C4&lt;/b&gt;" style="shape=partialRectangle;html=1;whiteSpace=wrap;connectable=0;strokeColor=inherit;overflow=hidden;fillColor=#AFAFAF;top=0;left=0;bottom=0;right=0;pointerEvents=1;" vertex="1" parent="KwYtqTC4AMZ2sCdALiQx-18">
          <mxGeometry x="350" width="60" height="40" as="geometry">
            <mxRectangle width="60" height="40" as="alternateBounds" />
          </mxGeometry>
        </mxCell>
        <mxCell id="KwYtqTC4AMZ2sCdALiQx-24" value="&lt;b&gt;C5&lt;/b&gt;" style="shape=partialRectangle;html=1;whiteSpace=wrap;connectable=0;strokeColor=inherit;overflow=hidden;fillColor=#AFAFAF;top=0;left=0;bottom=0;right=0;pointerEvents=1;" vertex="1" parent="KwYtqTC4AMZ2sCdALiQx-18">
          <mxGeometry x="410" width="60" height="40" as="geometry">
            <mxRectangle width="60" height="40" as="alternateBounds" />
          </mxGeometry>
        </mxCell>
        <mxCell id="KwYtqTC4AMZ2sCdALiQx-25" value="" style="shape=tableRow;horizontal=0;startSize=0;swimlaneHead=0;swimlaneBody=0;strokeColor=inherit;top=0;left=0;bottom=0;right=0;collapsible=0;dropTarget=0;fillColor=none;points=[[0,0.5],[1,0.5]];portConstraint=eastwest;" vertex="1" parent="KwYtqTC4AMZ2sCdALiQx-17">
          <mxGeometry y="40" width="470" height="40" as="geometry" />
        </mxCell>
        <mxCell id="KwYtqTC4AMZ2sCdALiQx-26" value="" style="shape=partialRectangle;html=1;whiteSpace=wrap;connectable=0;strokeColor=inherit;overflow=hidden;fillColor=none;top=0;left=0;bottom=0;right=0;pointerEvents=1;" vertex="1" parent="KwYtqTC4AMZ2sCdALiQx-25">
          <mxGeometry width="170" height="40" as="geometry">
            <mxRectangle width="170" height="40" as="alternateBounds" />
          </mxGeometry>
        </mxCell>
        <mxCell id="KwYtqTC4AMZ2sCdALiQx-27" value="" style="shape=partialRectangle;html=1;whiteSpace=wrap;connectable=0;strokeColor=inherit;overflow=hidden;fillColor=none;top=0;left=0;bottom=0;right=0;pointerEvents=1;" vertex="1" parent="KwYtqTC4AMZ2sCdALiQx-25">
          <mxGeometry x="170" width="60" height="40" as="geometry">
            <mxRectangle width="60" height="40" as="alternateBounds" />
          </mxGeometry>
        </mxCell>
        <mxCell id="KwYtqTC4AMZ2sCdALiQx-28" value="" style="shape=partialRectangle;html=1;whiteSpace=wrap;connectable=0;strokeColor=inherit;overflow=hidden;fillColor=none;top=0;left=0;bottom=0;right=0;pointerEvents=1;" vertex="1" parent="KwYtqTC4AMZ2sCdALiQx-25">
          <mxGeometry x="230" width="60" height="40" as="geometry">
            <mxRectangle width="60" height="40" as="alternateBounds" />
          </mxGeometry>
        </mxCell>
        <mxCell id="KwYtqTC4AMZ2sCdALiQx-29" value="" style="shape=partialRectangle;html=1;whiteSpace=wrap;connectable=0;strokeColor=inherit;overflow=hidden;fillColor=none;top=0;left=0;bottom=0;right=0;pointerEvents=1;" vertex="1" parent="KwYtqTC4AMZ2sCdALiQx-25">
          <mxGeometry x="290" width="60" height="40" as="geometry">
            <mxRectangle width="60" height="40" as="alternateBounds" />
          </mxGeometry>
        </mxCell>
        <mxCell id="KwYtqTC4AMZ2sCdALiQx-30" value="" style="shape=partialRectangle;html=1;whiteSpace=wrap;connectable=0;strokeColor=inherit;overflow=hidden;fillColor=none;top=0;left=0;bottom=0;right=0;pointerEvents=1;" vertex="1" parent="KwYtqTC4AMZ2sCdALiQx-25">
          <mxGeometry x="350" width="60" height="40" as="geometry">
            <mxRectangle width="60" height="40" as="alternateBounds" />
          </mxGeometry>
        </mxCell>
        <mxCell id="KwYtqTC4AMZ2sCdALiQx-31" value="" style="shape=partialRectangle;html=1;whiteSpace=wrap;connectable=0;strokeColor=inherit;overflow=hidden;fillColor=none;top=0;left=0;bottom=0;right=0;pointerEvents=1;" vertex="1" parent="KwYtqTC4AMZ2sCdALiQx-25">
          <mxGeometry x="410" width="60" height="40" as="geometry">
            <mxRectangle width="60" height="40" as="alternateBounds" />
          </mxGeometry>
        </mxCell>
        <mxCell id="KwYtqTC4AMZ2sCdALiQx-32" value="" style="shape=tableRow;horizontal=0;startSize=0;swimlaneHead=0;swimlaneBody=0;strokeColor=inherit;top=0;left=0;bottom=0;right=0;collapsible=0;dropTarget=0;fillColor=none;points=[[0,0.5],[1,0.5]];portConstraint=eastwest;" vertex="1" parent="KwYtqTC4AMZ2sCdALiQx-17">
          <mxGeometry y="80" width="470" height="40" as="geometry" />
        </mxCell>
        <mxCell id="KwYtqTC4AMZ2sCdALiQx-33" value="" style="shape=partialRectangle;html=1;whiteSpace=wrap;connectable=0;strokeColor=inherit;overflow=hidden;fillColor=none;top=0;left=0;bottom=0;right=0;pointerEvents=1;" vertex="1" parent="KwYtqTC4AMZ2sCdALiQx-32">
          <mxGeometry width="170" height="40" as="geometry">
            <mxRectangle width="170" height="40" as="alternateBounds" />
          </mxGeometry>
        </mxCell>
        <mxCell id="KwYtqTC4AMZ2sCdALiQx-34" value="" style="shape=partialRectangle;html=1;whiteSpace=wrap;connectable=0;strokeColor=inherit;overflow=hidden;fillColor=none;top=0;left=0;bottom=0;right=0;pointerEvents=1;" vertex="1" parent="KwYtqTC4AMZ2sCdALiQx-32">
          <mxGeometry x="170" width="60" height="40" as="geometry">
            <mxRectangle width="60" height="40" as="alternateBounds" />
          </mxGeometry>
        </mxCell>
        <mxCell id="KwYtqTC4AMZ2sCdALiQx-35" value="" style="shape=partialRectangle;html=1;whiteSpace=wrap;connectable=0;strokeColor=inherit;overflow=hidden;fillColor=none;top=0;left=0;bottom=0;right=0;pointerEvents=1;" vertex="1" parent="KwYtqTC4AMZ2sCdALiQx-32">
          <mxGeometry x="230" width="60" height="40" as="geometry">
            <mxRectangle width="60" height="40" as="alternateBounds" />
          </mxGeometry>
        </mxCell>
        <mxCell id="KwYtqTC4AMZ2sCdALiQx-36" value="" style="shape=partialRectangle;html=1;whiteSpace=wrap;connectable=0;strokeColor=inherit;overflow=hidden;fillColor=none;top=0;left=0;bottom=0;right=0;pointerEvents=1;" vertex="1" parent="KwYtqTC4AMZ2sCdALiQx-32">
          <mxGeometry x="290" width="60" height="40" as="geometry">
            <mxRectangle width="60" height="40" as="alternateBounds" />
          </mxGeometry>
        </mxCell>
        <mxCell id="KwYtqTC4AMZ2sCdALiQx-37" value="" style="shape=partialRectangle;html=1;whiteSpace=wrap;connectable=0;strokeColor=inherit;overflow=hidden;fillColor=none;top=0;left=0;bottom=0;right=0;pointerEvents=1;" vertex="1" parent="KwYtqTC4AMZ2sCdALiQx-32">
          <mxGeometry x="350" width="60" height="40" as="geometry">
            <mxRectangle width="60" height="40" as="alternateBounds" />
          </mxGeometry>
        </mxCell>
        <mxCell id="KwYtqTC4AMZ2sCdALiQx-38" value="" style="shape=partialRectangle;html=1;whiteSpace=wrap;connectable=0;strokeColor=inherit;overflow=hidden;fillColor=none;top=0;left=0;bottom=0;right=0;pointerEvents=1;" vertex="1" parent="KwYtqTC4AMZ2sCdALiQx-32">
          <mxGeometry x="410" width="60" height="40" as="geometry">
            <mxRectangle width="60" height="40" as="alternateBounds" />
          </mxGeometry>
        </mxCell>
        <mxCell id="KwYtqTC4AMZ2sCdALiQx-39" value="&lt;b&gt;Simpan Nilai&lt;/b&gt;" style="rounded=1;whiteSpace=wrap;html=1;fillColor=#AFAFAF;" vertex="1" parent="1">
          <mxGeometry x="290" y="350" width="80" height="25" as="geometry" />
        </mxCell>
      </root>
    </mxGraphModel>
  </diagram>
</mxfile>
